<mxfile host="app.diagrams.net" modified="2023-11-22T10:17:03.872Z" agent="Mozilla/5.0 (Windows NT 10.0; Win64; x64) AppleWebKit/537.36 (KHTML, like Gecko) Chrome/119.0.0.0 Safari/537.36" etag="kWOdeWohZFGN8mdTwtsU" version="22.1.3" type="github">
  <diagram name="Страница — 1" id="hprdBknnlUNOs0vlrVkV">
    <mxGraphModel dx="466" dy="731" grid="1" gridSize="10" guides="1" tooltips="1" connect="1" arrows="1" fold="1" page="1" pageScale="1" pageWidth="900" pageHeight="1600" math="0" shadow="0">
      <root>
        <mxCell id="0" />
        <mxCell id="1" parent="0" />
        <mxCell id="uvEM7nMXMGVtS6fNlEuX-13" value="Ниши" style="swimlane;fontStyle=0;childLayout=stackLayout;horizontal=1;startSize=30;horizontalStack=0;resizeParent=1;resizeParentMax=0;resizeLast=0;collapsible=1;marginBottom=0;whiteSpace=wrap;html=1;" parent="1" vertex="1">
          <mxGeometry x="2080" y="620" width="280" height="510" as="geometry" />
        </mxCell>
        <mxCell id="uvEM7nMXMGVtS6fNlEuX-16" value="E-commerce" style="text;strokeColor=none;fillColor=none;align=left;verticalAlign=middle;spacingLeft=4;spacingRight=4;overflow=hidden;points=[[0,0.5],[1,0.5]];portConstraint=eastwest;rotatable=0;whiteSpace=wrap;html=1;" parent="uvEM7nMXMGVtS6fNlEuX-13" vertex="1">
          <mxGeometry y="30" width="280" height="30" as="geometry" />
        </mxCell>
        <mxCell id="uvEM7nMXMGVtS6fNlEuX-18" value="Логистика" style="text;strokeColor=none;fillColor=none;align=left;verticalAlign=middle;spacingLeft=4;spacingRight=4;overflow=hidden;points=[[0,0.5],[1,0.5]];portConstraint=eastwest;rotatable=0;whiteSpace=wrap;html=1;" parent="uvEM7nMXMGVtS6fNlEuX-13" vertex="1">
          <mxGeometry y="60" width="280" height="30" as="geometry" />
        </mxCell>
        <mxCell id="uvEM7nMXMGVtS6fNlEuX-19" value="Онлайн Обучение" style="text;strokeColor=none;fillColor=none;align=left;verticalAlign=middle;spacingLeft=4;spacingRight=4;overflow=hidden;points=[[0,0.5],[1,0.5]];portConstraint=eastwest;rotatable=0;whiteSpace=wrap;html=1;" parent="uvEM7nMXMGVtS6fNlEuX-13" vertex="1">
          <mxGeometry y="90" width="280" height="30" as="geometry" />
        </mxCell>
        <mxCell id="uvEM7nMXMGVtS6fNlEuX-20" value="Туристические Агентства" style="text;strokeColor=none;fillColor=none;align=left;verticalAlign=middle;spacingLeft=4;spacingRight=4;overflow=hidden;points=[[0,0.5],[1,0.5]];portConstraint=eastwest;rotatable=0;whiteSpace=wrap;html=1;" parent="uvEM7nMXMGVtS6fNlEuX-13" vertex="1">
          <mxGeometry y="120" width="280" height="30" as="geometry" />
        </mxCell>
        <mxCell id="uvEM7nMXMGVtS6fNlEuX-22" value="Заказная Разработка" style="text;strokeColor=none;fillColor=none;align=left;verticalAlign=middle;spacingLeft=4;spacingRight=4;overflow=hidden;points=[[0,0.5],[1,0.5]];portConstraint=eastwest;rotatable=0;whiteSpace=wrap;html=1;" parent="uvEM7nMXMGVtS6fNlEuX-13" vertex="1">
          <mxGeometry y="150" width="280" height="30" as="geometry" />
        </mxCell>
        <mxCell id="uvEM7nMXMGVtS6fNlEuX-24" value="Продажа на Маркетплейсах" style="text;strokeColor=none;fillColor=none;align=left;verticalAlign=middle;spacingLeft=4;spacingRight=4;overflow=hidden;points=[[0,0.5],[1,0.5]];portConstraint=eastwest;rotatable=0;whiteSpace=wrap;html=1;" parent="uvEM7nMXMGVtS6fNlEuX-13" vertex="1">
          <mxGeometry y="180" width="280" height="30" as="geometry" />
        </mxCell>
        <mxCell id="uvEM7nMXMGVtS6fNlEuX-25" value="Производство" style="text;strokeColor=none;fillColor=none;align=left;verticalAlign=middle;spacingLeft=4;spacingRight=4;overflow=hidden;points=[[0,0.5],[1,0.5]];portConstraint=eastwest;rotatable=0;whiteSpace=wrap;html=1;" parent="uvEM7nMXMGVtS6fNlEuX-13" vertex="1">
          <mxGeometry y="210" width="280" height="30" as="geometry" />
        </mxCell>
        <mxCell id="uvEM7nMXMGVtS6fNlEuX-26" value="Недвижимость" style="text;strokeColor=none;fillColor=none;align=left;verticalAlign=middle;spacingLeft=4;spacingRight=4;overflow=hidden;points=[[0,0.5],[1,0.5]];portConstraint=eastwest;rotatable=0;whiteSpace=wrap;html=1;" parent="uvEM7nMXMGVtS6fNlEuX-13" vertex="1">
          <mxGeometry y="240" width="280" height="30" as="geometry" />
        </mxCell>
        <mxCell id="uvEM7nMXMGVtS6fNlEuX-27" value="Консалтинг" style="text;strokeColor=none;fillColor=none;align=left;verticalAlign=middle;spacingLeft=4;spacingRight=4;overflow=hidden;points=[[0,0.5],[1,0.5]];portConstraint=eastwest;rotatable=0;whiteSpace=wrap;html=1;" parent="uvEM7nMXMGVtS6fNlEuX-13" vertex="1">
          <mxGeometry y="270" width="280" height="30" as="geometry" />
        </mxCell>
        <mxCell id="uvEM7nMXMGVtS6fNlEuX-28" value="Маркетинг" style="text;strokeColor=none;fillColor=none;align=left;verticalAlign=middle;spacingLeft=4;spacingRight=4;overflow=hidden;points=[[0,0.5],[1,0.5]];portConstraint=eastwest;rotatable=0;whiteSpace=wrap;html=1;" parent="uvEM7nMXMGVtS6fNlEuX-13" vertex="1">
          <mxGeometry y="300" width="280" height="30" as="geometry" />
        </mxCell>
        <mxCell id="uvEM7nMXMGVtS6fNlEuX-29" value="Развлечения" style="text;strokeColor=none;fillColor=none;align=left;verticalAlign=middle;spacingLeft=4;spacingRight=4;overflow=hidden;points=[[0,0.5],[1,0.5]];portConstraint=eastwest;rotatable=0;whiteSpace=wrap;html=1;" parent="uvEM7nMXMGVtS6fNlEuX-13" vertex="1">
          <mxGeometry y="330" width="280" height="30" as="geometry" />
        </mxCell>
        <mxCell id="uvEM7nMXMGVtS6fNlEuX-30" value="Общепит" style="text;strokeColor=none;fillColor=none;align=left;verticalAlign=middle;spacingLeft=4;spacingRight=4;overflow=hidden;points=[[0,0.5],[1,0.5]];portConstraint=eastwest;rotatable=0;whiteSpace=wrap;html=1;" parent="uvEM7nMXMGVtS6fNlEuX-13" vertex="1">
          <mxGeometry y="360" width="280" height="30" as="geometry" />
        </mxCell>
        <mxCell id="jdNM8Af2LZASPKAIaAua-1" value="Помощь бизнесу с их процессами" style="text;strokeColor=none;fillColor=none;align=left;verticalAlign=middle;spacingLeft=4;spacingRight=4;overflow=hidden;points=[[0,0.5],[1,0.5]];portConstraint=eastwest;rotatable=0;whiteSpace=wrap;html=1;" parent="uvEM7nMXMGVtS6fNlEuX-13" vertex="1">
          <mxGeometry y="390" width="280" height="30" as="geometry" />
        </mxCell>
        <mxCell id="jdNM8Af2LZASPKAIaAua-2" value="Здоровье" style="text;strokeColor=none;fillColor=none;align=left;verticalAlign=middle;spacingLeft=4;spacingRight=4;overflow=hidden;points=[[0,0.5],[1,0.5]];portConstraint=eastwest;rotatable=0;whiteSpace=wrap;html=1;" parent="uvEM7nMXMGVtS6fNlEuX-13" vertex="1">
          <mxGeometry y="420" width="280" height="30" as="geometry" />
        </mxCell>
        <mxCell id="jdNM8Af2LZASPKAIaAua-3" value="Розничная Торговля" style="text;strokeColor=none;fillColor=none;align=left;verticalAlign=middle;spacingLeft=4;spacingRight=4;overflow=hidden;points=[[0,0.5],[1,0.5]];portConstraint=eastwest;rotatable=0;whiteSpace=wrap;html=1;" parent="uvEM7nMXMGVtS6fNlEuX-13" vertex="1">
          <mxGeometry y="450" width="280" height="30" as="geometry" />
        </mxCell>
        <mxCell id="jdNM8Af2LZASPKAIaAua-4" value="Интернет Ресурс" style="text;strokeColor=none;fillColor=none;align=left;verticalAlign=middle;spacingLeft=4;spacingRight=4;overflow=hidden;points=[[0,0.5],[1,0.5]];portConstraint=eastwest;rotatable=0;whiteSpace=wrap;html=1;" parent="uvEM7nMXMGVtS6fNlEuX-13" vertex="1">
          <mxGeometry y="480" width="280" height="30" as="geometry" />
        </mxCell>
        <mxCell id="VZ_1tIW-UJFdNbXxj1-S-13" value="" style="edgeStyle=orthogonalEdgeStyle;rounded=0;orthogonalLoop=1;jettySize=auto;html=1;" parent="1" source="VZ_1tIW-UJFdNbXxj1-S-9" edge="1">
          <mxGeometry relative="1" as="geometry">
            <mxPoint x="1350" y="155" as="targetPoint" />
          </mxGeometry>
        </mxCell>
        <mxCell id="VZ_1tIW-UJFdNbXxj1-S-9" value="&lt;b&gt;&lt;font style=&quot;font-size: 15px;&quot;&gt;Техника Заработка Денег&lt;/font&gt;&lt;/b&gt;" style="text;html=1;strokeColor=none;fillColor=none;align=center;verticalAlign=middle;whiteSpace=wrap;rounded=0;" parent="1" vertex="1">
          <mxGeometry x="1255" y="30" width="190" height="30" as="geometry" />
        </mxCell>
        <mxCell id="VZ_1tIW-UJFdNbXxj1-S-10" style="edgeStyle=orthogonalEdgeStyle;rounded=0;orthogonalLoop=1;jettySize=auto;html=1;exitX=0.5;exitY=1;exitDx=0;exitDy=0;" parent="1" source="VZ_1tIW-UJFdNbXxj1-S-9" target="VZ_1tIW-UJFdNbXxj1-S-9" edge="1">
          <mxGeometry relative="1" as="geometry" />
        </mxCell>
        <mxCell id="VZ_1tIW-UJFdNbXxj1-S-18" value="" style="edgeStyle=orthogonalEdgeStyle;rounded=0;orthogonalLoop=1;jettySize=auto;html=1;" parent="1" source="VZ_1tIW-UJFdNbXxj1-S-16" edge="1">
          <mxGeometry relative="1" as="geometry">
            <mxPoint x="1350" y="285" as="targetPoint" />
          </mxGeometry>
        </mxCell>
        <mxCell id="VZ_1tIW-UJFdNbXxj1-S-16" value="Понять Нишу: Кому Продаю?" style="text;html=1;align=center;verticalAlign=middle;resizable=0;points=[];autosize=1;strokeColor=none;fillColor=none;" parent="1" vertex="1">
          <mxGeometry x="1255" y="160" width="190" height="30" as="geometry" />
        </mxCell>
        <mxCell id="VZ_1tIW-UJFdNbXxj1-S-21" value="" style="edgeStyle=orthogonalEdgeStyle;rounded=0;orthogonalLoop=1;jettySize=auto;html=1;" parent="1" source="VZ_1tIW-UJFdNbXxj1-S-19" edge="1">
          <mxGeometry relative="1" as="geometry">
            <mxPoint x="1350" y="403" as="targetPoint" />
          </mxGeometry>
        </mxCell>
        <mxCell id="VZ_1tIW-UJFdNbXxj1-S-19" value="Понять Размер Рынка" style="text;html=1;align=center;verticalAlign=middle;resizable=0;points=[];autosize=1;strokeColor=none;fillColor=none;" parent="1" vertex="1">
          <mxGeometry x="1275" y="278" width="150" height="30" as="geometry" />
        </mxCell>
        <mxCell id="VZ_1tIW-UJFdNbXxj1-S-29" value="" style="edgeStyle=orthogonalEdgeStyle;rounded=0;orthogonalLoop=1;jettySize=auto;html=1;" parent="1" source="VZ_1tIW-UJFdNbXxj1-S-23" edge="1">
          <mxGeometry relative="1" as="geometry">
            <mxPoint x="1180" y="650" as="targetPoint" />
          </mxGeometry>
        </mxCell>
        <mxCell id="VZ_1tIW-UJFdNbXxj1-S-33" value="" style="edgeStyle=orthogonalEdgeStyle;rounded=0;orthogonalLoop=1;jettySize=auto;html=1;" parent="1" source="VZ_1tIW-UJFdNbXxj1-S-23" edge="1">
          <mxGeometry relative="1" as="geometry">
            <mxPoint x="1520" y="650" as="targetPoint" />
          </mxGeometry>
        </mxCell>
        <mxCell id="VZ_1tIW-UJFdNbXxj1-S-23" value="Могу ли захватить Долю рынка?" style="text;html=1;align=center;verticalAlign=middle;resizable=0;points=[];autosize=1;strokeColor=none;fillColor=none;" parent="1" vertex="1">
          <mxGeometry x="1250" y="508" width="200" height="30" as="geometry" />
        </mxCell>
        <mxCell id="VZ_1tIW-UJFdNbXxj1-S-37" value="" style="edgeStyle=orthogonalEdgeStyle;rounded=0;orthogonalLoop=1;jettySize=auto;html=1;" parent="1" source="VZ_1tIW-UJFdNbXxj1-S-34" edge="1">
          <mxGeometry relative="1" as="geometry">
            <mxPoint x="1180" y="775" as="targetPoint" />
          </mxGeometry>
        </mxCell>
        <mxCell id="VZ_1tIW-UJFdNbXxj1-S-34" value="Да" style="text;html=1;strokeColor=none;fillColor=none;align=center;verticalAlign=middle;whiteSpace=wrap;rounded=0;" parent="1" vertex="1">
          <mxGeometry x="1150" y="650" width="60" height="30" as="geometry" />
        </mxCell>
        <mxCell id="VZ_1tIW-UJFdNbXxj1-S-40" value="" style="edgeStyle=orthogonalEdgeStyle;rounded=0;orthogonalLoop=1;jettySize=auto;html=1;" parent="1" source="VZ_1tIW-UJFdNbXxj1-S-35" edge="1">
          <mxGeometry relative="1" as="geometry">
            <mxPoint x="1520" y="773" as="targetPoint" />
          </mxGeometry>
        </mxCell>
        <mxCell id="VZ_1tIW-UJFdNbXxj1-S-35" value="Нет" style="text;html=1;align=center;verticalAlign=middle;resizable=0;points=[];autosize=1;strokeColor=none;fillColor=none;" parent="1" vertex="1">
          <mxGeometry x="1500" y="648" width="40" height="30" as="geometry" />
        </mxCell>
        <mxCell id="VZ_1tIW-UJFdNbXxj1-S-38" value="Остаюсь в рынке" style="text;html=1;strokeColor=none;fillColor=none;align=center;verticalAlign=middle;whiteSpace=wrap;rounded=0;" parent="1" vertex="1">
          <mxGeometry x="1130" y="770" width="100" height="30" as="geometry" />
        </mxCell>
        <mxCell id="VZ_1tIW-UJFdNbXxj1-S-45" value="" style="edgeStyle=orthogonalEdgeStyle;rounded=0;orthogonalLoop=1;jettySize=auto;html=1;" parent="1" source="VZ_1tIW-UJFdNbXxj1-S-41" edge="1">
          <mxGeometry relative="1" as="geometry">
            <mxPoint x="1520" y="895" as="targetPoint" />
          </mxGeometry>
        </mxCell>
        <mxCell id="VZ_1tIW-UJFdNbXxj1-S-41" value="Сужаю рынок, пока его не станет легко захватить" style="text;html=1;align=center;verticalAlign=middle;resizable=0;points=[];autosize=1;strokeColor=none;fillColor=none;" parent="1" vertex="1">
          <mxGeometry x="1370" y="770" width="300" height="30" as="geometry" />
        </mxCell>
        <mxCell id="VZ_1tIW-UJFdNbXxj1-S-43" value="" style="edgeStyle=orthogonalEdgeStyle;rounded=0;orthogonalLoop=1;jettySize=auto;html=1;" parent="1" source="VZ_1tIW-UJFdNbXxj1-S-42" target="VZ_1tIW-UJFdNbXxj1-S-23" edge="1">
          <mxGeometry relative="1" as="geometry" />
        </mxCell>
        <mxCell id="VZ_1tIW-UJFdNbXxj1-S-42" value="Понять свою текущую долю рынка" style="text;html=1;align=center;verticalAlign=middle;resizable=0;points=[];autosize=1;strokeColor=none;fillColor=none;" parent="1" vertex="1">
          <mxGeometry x="1240" y="400" width="220" height="30" as="geometry" />
        </mxCell>
        <mxCell id="VZ_1tIW-UJFdNbXxj1-S-48" value="" style="edgeStyle=orthogonalEdgeStyle;rounded=0;orthogonalLoop=1;jettySize=auto;html=1;" parent="1" source="VZ_1tIW-UJFdNbXxj1-S-46" edge="1">
          <mxGeometry relative="1" as="geometry">
            <mxPoint x="1520" y="1013" as="targetPoint" />
          </mxGeometry>
        </mxCell>
        <mxCell id="VZ_1tIW-UJFdNbXxj1-S-46" value="Понять ключевые клиентские ценности" style="text;html=1;align=center;verticalAlign=middle;resizable=0;points=[];autosize=1;strokeColor=none;fillColor=none;" parent="1" vertex="1">
          <mxGeometry x="1400" y="888" width="240" height="30" as="geometry" />
        </mxCell>
        <mxCell id="VZ_1tIW-UJFdNbXxj1-S-49" value="Сделать Продукт с явным перекосом в выбранные клиентские ценности, чтобы создать нечестное конкурентное приемущество" style="text;html=1;align=center;verticalAlign=middle;resizable=0;points=[];autosize=1;strokeColor=none;fillColor=none;" parent="1" vertex="1">
          <mxGeometry x="1150" y="1008" width="740" height="30" as="geometry" />
        </mxCell>
        <mxCell id="xGrdm8vyIs2scSEe97lw-3" value="" style="edgeStyle=orthogonalEdgeStyle;rounded=0;orthogonalLoop=1;jettySize=auto;html=1;" edge="1" parent="1" source="xGrdm8vyIs2scSEe97lw-1">
          <mxGeometry relative="1" as="geometry">
            <mxPoint x="1540" y="1245" as="targetPoint" />
          </mxGeometry>
        </mxCell>
        <mxCell id="xGrdm8vyIs2scSEe97lw-1" value="&lt;font style=&quot;font-size: 17px;&quot;&gt;Бизнес на Бытовках&lt;/font&gt;" style="text;html=1;align=center;verticalAlign=middle;resizable=0;points=[];autosize=1;strokeColor=none;fillColor=none;" vertex="1" parent="1">
          <mxGeometry x="1450" y="1120" width="180" height="30" as="geometry" />
        </mxCell>
        <mxCell id="xGrdm8vyIs2scSEe97lw-8" value="" style="edgeStyle=orthogonalEdgeStyle;rounded=0;orthogonalLoop=1;jettySize=auto;html=1;" edge="1" parent="1" source="xGrdm8vyIs2scSEe97lw-4" target="xGrdm8vyIs2scSEe97lw-7">
          <mxGeometry relative="1" as="geometry" />
        </mxCell>
        <mxCell id="xGrdm8vyIs2scSEe97lw-4" value="Есть Производитель бытовок" style="text;html=1;align=center;verticalAlign=middle;resizable=0;points=[];autosize=1;strokeColor=none;fillColor=none;" vertex="1" parent="1">
          <mxGeometry x="1445" y="1248" width="190" height="30" as="geometry" />
        </mxCell>
        <mxCell id="xGrdm8vyIs2scSEe97lw-10" value="" style="edgeStyle=orthogonalEdgeStyle;rounded=0;orthogonalLoop=1;jettySize=auto;html=1;" edge="1" parent="1" source="xGrdm8vyIs2scSEe97lw-7" target="xGrdm8vyIs2scSEe97lw-9">
          <mxGeometry relative="1" as="geometry" />
        </mxCell>
        <mxCell id="xGrdm8vyIs2scSEe97lw-7" value="Марсель договаривается о том что будет работать с ним по модели дропшиппинга&amp;nbsp;" style="text;html=1;align=center;verticalAlign=middle;resizable=0;points=[];autosize=1;strokeColor=none;fillColor=none;" vertex="1" parent="1">
          <mxGeometry x="1295" y="1358" width="490" height="30" as="geometry" />
        </mxCell>
        <mxCell id="xGrdm8vyIs2scSEe97lw-12" value="" style="edgeStyle=orthogonalEdgeStyle;rounded=0;orthogonalLoop=1;jettySize=auto;html=1;" edge="1" parent="1" source="xGrdm8vyIs2scSEe97lw-9" target="xGrdm8vyIs2scSEe97lw-11">
          <mxGeometry relative="1" as="geometry" />
        </mxCell>
        <mxCell id="xGrdm8vyIs2scSEe97lw-9" value="Делает объявление на Авито" style="text;html=1;align=center;verticalAlign=middle;resizable=0;points=[];autosize=1;strokeColor=none;fillColor=none;" vertex="1" parent="1">
          <mxGeometry x="1445" y="1468" width="190" height="30" as="geometry" />
        </mxCell>
        <mxCell id="xGrdm8vyIs2scSEe97lw-14" value="" style="edgeStyle=orthogonalEdgeStyle;rounded=0;orthogonalLoop=1;jettySize=auto;html=1;" edge="1" parent="1" source="xGrdm8vyIs2scSEe97lw-11" target="xGrdm8vyIs2scSEe97lw-13">
          <mxGeometry relative="1" as="geometry" />
        </mxCell>
        <mxCell id="xGrdm8vyIs2scSEe97lw-11" value="Продает Бытовку и передает заказ Производителю" style="text;html=1;align=center;verticalAlign=middle;resizable=0;points=[];autosize=1;strokeColor=none;fillColor=none;" vertex="1" parent="1">
          <mxGeometry x="1385" y="1578" width="310" height="30" as="geometry" />
        </mxCell>
        <mxCell id="xGrdm8vyIs2scSEe97lw-13" value="Производитель доставляет бытовку и марсель получает процент от продажи" style="text;html=1;align=center;verticalAlign=middle;resizable=0;points=[];autosize=1;strokeColor=none;fillColor=none;" vertex="1" parent="1">
          <mxGeometry x="1315" y="1688" width="450" height="30" as="geometry" />
        </mxCell>
      </root>
    </mxGraphModel>
  </diagram>
</mxfile>
